<svg xmlns="http://www.w3.org/2000/svg" fill="none" viewBox="0 0 283 64"><path fill="black" d="m141 16 4 9h10l-8 7 3 9-9-7-9 7 3-9-8-7h10l4-9ZM47 50c-4.4 0-8-3.6-8-8s3.6-8 8-8 8 3.6 8 8-3.6 8-8 8Zm0-48C21.1 2 0 23.1 0 49s21.1 47 47 47 47-21.1 47-47S72.9 2 47 2Zm120.9 32.1c2.6 0 4.8 1.1 6.8 3.3L193 21.1c-8.4-8.4-19.9-12.4-31.2-12.4S142.2 12.7 133.8 21.1c-8.4 8.4-12.4 19.9-12.4 31.2s4 22.8 12.4 31.2c8.4 8.4 19.9 12.4 31.2 12.4s22.8-4 31.2-12.4l-18.3-18.3c-2.2 2.2-4.2 3.3-6.8 3.3-5.4 0-9.8-4.4-9.8-9.8s4.4-9.8 9.8-9.8Z"/><path fill="black" d="M200.2 95.7c0-17.9 14.5-32.4 32.4-32.4s32.4 14.5 32.4 32.4-14.5 32.4-32.4 32.4-32.4-14.5-32.4-32.4Z"/></svg>